<svg xmlns="http://www.w3.org/2000/svg" viewBox="0 0 512 512">
  <defs>
    <linearGradient id="g" x1="0" y1="0" x2="1" y2="1">
      <stop offset="0%" stop-color="#4ade80"/>
      <stop offset="100%" stop-color="#22d3ee"/>
    </linearGradient>
  </defs>
  <rect width="512" height="512" rx="108" fill="#0a0f0d"/>
  <g transform="translate(256,256) scale(0.55)" fill="none" stroke="url(#g)" stroke-width="24" stroke-linecap="round" stroke-linejoin="round">
    <!-- Leaf shape -->
    <path d="M0,-180 C90,-140 160,-40 160,60 C160,140 100,200 0,200 C-100,200 -160,140 -160,60 C-160,-40 -90,-140 0,-180Z" fill="url(#g)" opacity="0.15"/>
    <path d="M0,-180 C90,-140 160,-40 160,60 C160,140 100,200 0,200 C-100,200 -160,140 -160,60 C-160,-40 -90,-140 0,-180Z"/>
    <!-- Leaf vein -->
    <path d="M0,-160 L0,180"/>
    <path d="M0,-60 L70,10"/>
    <path d="M0,20 L-60,80"/>
    <path d="M0,80 L50,130"/>
    <!-- Eye/scout circle -->
    <circle cx="0" cy="-20" r="40" fill="url(#g)" opacity="0.3"/>
    <circle cx="0" cy="-20" r="18" fill="url(#g)" opacity="0.7"/>
  </g>
</svg>
